# xmcd
#
# Track frame offsets:
#	150
#	13739
#	35178
#	52790
#	71905
#	92079
#	111650
#	132106
#	150586
#	168619
#	188313
#	208168
#	230210
#	252096
#	267369
#	284098
#	304630
#	322954
#
# Disc length: 4567 seconds
#
# Revision: 1
# Processed by: cddbd v1.5PL3 Copyright (c) Steve Scherf et al.
# Submitted via: audiograbber 1.83.01
#
DISCID=0a11d512
DTITLE=呂方 - 既然愛了就不怕(Disk3)
DYEAR=1900
DGENRE=Blues
TTITLE0=夜半輕私語
TTITLE1=最後一次別離
TTITLE2=回來我身邊
TTITLE3=如果愛他比愛我快樂
TTITLE4=午夜溫馨
TTITLE5=逝去的感覺
TTITLE6=只有愛
TTITLE7=雨中擁抱
TTITLE8=這份情
TTITLE9=不想再有感覺
TTITLE10=愛到厭
TTITLE11=明知會是這樣
TTITLE12=想著你的感覺
TTITLE13=甜蜜十六歲
TTITLE14=回來吧
TTITLE15=幾時愛我
TTITLE16=回頭一看
TTITLE17=幽會
EXTD=
EXTT0=
EXTT1=
EXTT2=
EXTT3=
EXTT4=
EXTT5=
EXTT6=
EXTT7=
EXTT8=
EXTT9=
EXTT10=
EXTT11=
EXTT12=
EXTT13=
EXTT14=
EXTT15=
EXTT16=
EXTT17=
PLAYORDER=
